# xmcd
#
# Track frame offsets:
#	150
#	10607
#	22612
#	37680
#	49822
#	65152
#	75560
#	87157
#	100940
#	111845
#	124812
#	146392
#	155675
#	165970
#
# Disc length: 2409 seconds
# Revision: 0
# Processed by: cddbd v1.5.2PL0 Copyright (c) Steve Scherf et al.
# Submitted via: dBpowerAMP V12.0
#
DISCID=9d09670e
DTITLE=Various Artist - The Best Of Delta Records, Vol. 1
DYEAR=1995
DGENRE=Country
TTITLE0=Willie Nelson - Pride Wins Again
TTITLE1=Johnny Bush - Jim, Jack And Rose
TTITLE2=Johnny Janot - I'm Proud To Be A Cajun
TTITLE3=Allen Fontenot - Papa Joe Special
TTITLE4=Tommy Gimble Band - Amazing Grace
TTITLE5=Bob Wills and Tommy Duncan - Sugar Blues
TTITLE6=David Houston - Almost Persuaded
TTITLE7=Fiddlin' Frenchie Burke - Let's Go Get Drunk And Be Somebody
TTITLE8=Bob White Band - Cotton Eyed Joe
TTITLE9=Johnny Janot - Blues Stay Away From Me
TTITLE10=Bob Wills' Original Texas Playboys - Faded Love
TTITLE11=Fiddlin' Frenchie Burke - Diggy Liggy Lo
TTITLE12=Texas Honky Tonk Band - She Thinks I Still Care
TTITLE13=Johnny Bush - I Can Feel Him Touching You All Over Me
EXTD=
EXTT0=
EXTT1=
EXTT2=
EXTT3=
EXTT4=
EXTT5=
EXTT6=
EXTT7=
EXTT8=
EXTT9=
EXTT10=
EXTT11=
EXTT12=
EXTT13=
PLAYORDER=
